<svg width="50" height="50" viewBox="0 0 50 50" fill="none" xmlns="http://www.w3.org/2000/svg">
<rect x="0.5" y="0.5" width="49" height="49" rx="9.5" fill="#444444" stroke="url(#paint0_linear_357_381)"/>
<path d="M43 23.7885H38.7863C38.3422 17.0659 32.9248 11.6769 26.1699 11.2418V7H24.5008V11.2347C17.695 11.6253 12.2245 17.046 11.788 23.8097H7V25.4715H11.7818C12.177 32.2319 17.6019 37.6668 24.3773 38.1174V43H26.0887V38.1259C32.9225 37.7264 38.4082 32.2569 38.7953 25.4502H43V23.7885ZM37.1542 23.7885H35.3032C34.8733 18.973 31.0092 15.1308 26.1699 14.71V12.8662C32.0266 13.2956 36.7158 17.9596 37.1542 23.7885ZM33.6815 25.4502C33.3139 29.4565 30.1095 32.6565 26.0892 33.0358V32.7478H26.1091C26.1091 32.7478 26.0811 30.3233 26.0773 30.2613C26.0588 29.9705 26.187 29.8249 26.4611 29.7521C27.1004 29.57 27.6481 29.2428 28.0685 28.7339C29.2009 27.2793 28.7624 25.2062 27.1004 24.2968C26.5889 24.006 26.0227 23.7875 25.493 23.5695C25.1824 23.4423 24.8722 23.2787 24.6162 23.0787C24.0866 22.6606 24.1958 21.9877 24.8171 21.7148C24.9815 21.642 25.1643 21.6056 25.3653 21.6056C26.0778 21.5692 26.7532 21.6964 27.4111 22.0057C27.7398 22.1693 27.831 22.1149 27.9407 21.7877C28.0504 21.442 28.1602 21.0783 28.2514 20.7147C28.3245 20.4782 28.2328 20.3146 28.0139 20.2238C27.594 20.0418 27.1736 19.9146 26.7352 19.8417C26.302 19.7741 26.1903 19.7557 26.1614 19.514V18.7385H26.1704V16.332C30.1124 16.742 33.2535 19.8659 33.672 23.7885H30.795V25.4502H33.6815ZM16.9013 23.8093C17.3136 19.8455 20.508 16.6951 24.5008 16.3249V17.4716H24.4994V18.6311C24.4922 18.6851 24.488 18.7461 24.488 18.8231C24.488 19.0052 24.488 19.1688 24.488 19.3504C24.488 19.8597 24.488 19.8597 23.9949 20.0413C22.7894 20.4778 22.0588 21.2959 21.9676 22.5873C21.8945 23.7331 22.4972 24.5148 23.4472 25.0785C24.0315 25.4242 24.6894 25.6422 25.3102 25.915C25.5477 26.0243 25.7852 26.1515 25.9861 26.3151C26.5889 26.806 26.4791 27.6245 25.7666 27.9333C25.3833 28.0969 24.981 28.1334 24.5796 28.0969C23.9403 28.0241 23.3375 27.8605 22.7713 27.5512C22.4426 27.3692 22.3329 27.424 22.2232 27.7877C22.132 28.0969 22.0403 28.4057 21.9491 28.7334C21.8394 29.1515 21.8759 29.2607 22.2778 29.4608C22.7894 29.7152 23.3556 29.8428 23.9218 29.9336C24.3474 30.0041 24.3768 30.0268 24.3782 30.4434H24.3768V32.7473L24.3778 33.0244C20.4158 32.5988 17.2694 29.431 16.8961 25.4705H19.4525V23.8088L16.9013 23.8093ZM24.5008 12.8591V14.7052C19.6107 15.085 15.6953 18.9532 15.2721 23.8097H13.4205C13.8514 17.9398 18.5932 13.245 24.5008 12.8591ZM13.4144 25.4715H15.2683C15.6521 30.3247 19.5181 34.2137 24.3778 34.6502V36.4931C18.5006 36.0481 13.8048 31.3376 13.4144 25.4715ZM26.0892 36.5016V34.6559C31.0068 34.2672 34.9327 30.3493 35.3093 25.4502H37.1637C36.7809 31.3632 32.0247 36.1062 26.0892 36.5016Z" fill="#BBBBBB"/>
<defs>
<linearGradient id="paint0_linear_357_381" x1="1.5" y1="2.79099e-07" x2="50" y2="50" gradientUnits="userSpaceOnUse">
<stop stop-color="#666666" stop-opacity="0.7"/>
<stop offset="1" stop-color="#666666" stop-opacity="0"/>
</linearGradient>
</defs>
</svg>
