<svg width="17" height="17" viewBox="0 0 17 17" fill="none" xmlns="http://www.w3.org/2000/svg">
<path d="M1.26354 9.41009C0.998778 7.68718 0.866396 6.82573 1.19212 6.06203C1.51785 5.29834 2.24052 4.77582 3.68585 3.7308L4.76574 2.95C6.56372 1.65 7.46271 1 8.5 1C9.53729 1 10.4363 1.65 12.2343 2.95L13.3141 3.7308C14.7595 4.77582 15.4821 5.29834 15.8079 6.06203C16.1336 6.82573 16.0012 7.68718 15.7365 9.41009L15.5107 10.8793C15.1353 13.3217 14.9477 14.5429 14.0717 15.2714C13.1958 16 11.9152 16 9.35411 16H7.64589C5.08475 16 3.80418 16 2.92825 15.2714C2.05232 14.5429 1.86465 13.3217 1.48932 10.8793L1.26354 9.41009Z" stroke="#888888" stroke-width="1.5" stroke-linejoin="round"/>
<path d="M8.5 13L8.5 10.75" stroke="#888888" stroke-width="1.5" stroke-linecap="round"/>
</svg>
