<svg width="36" height="36" viewBox="0 0 36 36" fill="none" xmlns="http://www.w3.org/2000/svg">
<path d="M36 16.7885H31.7863C31.3422 10.0659 25.9248 4.67686 19.1699 4.2418V0H17.5008V4.23471C10.695 4.62532 5.22449 10.046 4.78797 16.8097H0V18.4715H4.78179C5.17699 25.2319 10.6019 30.6668 17.3773 31.1174V36H19.0887V31.1259C25.9225 30.7264 31.4082 25.2569 31.7953 18.4502H36V16.7885ZM30.1542 16.7885H28.3032C27.8733 11.973 24.0092 8.13083 19.1699 7.70996V5.86617C25.0266 6.29556 29.7158 10.9596 30.1542 16.7885ZM26.6815 18.4502C26.3139 22.4565 23.1095 25.6565 19.0892 26.0358V25.7478H19.1091C19.1091 25.7478 19.0811 23.3233 19.0773 23.2613C19.0588 22.9705 19.187 22.8249 19.4611 22.7521C20.1004 22.57 20.6481 22.2428 21.0685 21.7339C22.2009 20.2793 21.7624 18.2062 20.1004 17.2968C19.5889 17.006 19.0227 16.7875 18.493 16.5695C18.1824 16.4423 17.8722 16.2787 17.6162 16.0787C17.0866 15.6606 17.1958 14.9877 17.8171 14.7148C17.9815 14.642 18.1643 14.6056 18.3653 14.6056C19.0778 14.5692 19.7532 14.6964 20.4111 15.0057C20.7398 15.1693 20.831 15.1149 20.9407 14.7877C21.0504 14.442 21.1602 14.0783 21.2514 13.7147C21.3245 13.4782 21.2328 13.3146 21.0139 13.2238C20.594 13.0418 20.1736 12.9146 19.7352 12.8417C19.302 12.7741 19.1903 12.7557 19.1614 12.514V11.7385H19.1704V9.33197C23.1124 9.74196 26.2535 12.8659 26.672 16.7885H23.795V18.4502H26.6815ZM9.90131 16.8093C10.3136 12.8455 13.508 9.69515 17.5008 9.32487V10.4716H17.4994V11.6311C17.4922 11.6851 17.488 11.7461 17.488 11.8231C17.488 12.0052 17.488 12.1688 17.488 12.3504C17.488 12.8597 17.488 12.8597 16.9949 13.0413C15.7894 13.4778 15.0588 14.2959 14.9676 15.5873C14.8945 16.7331 15.4972 17.5148 16.4472 18.0785C17.0315 18.4242 17.6894 18.6422 18.3102 18.915C18.5477 19.0243 18.7852 19.1515 18.9861 19.3151C19.5889 19.806 19.4791 20.6245 18.7666 20.9333C18.3833 21.0969 17.981 21.1334 17.5796 21.0969C16.9403 21.0241 16.3375 20.8605 15.7713 20.5512C15.4426 20.3692 15.3329 20.424 15.2232 20.7877C15.132 21.0969 15.0403 21.4057 14.9491 21.7334C14.8394 22.1515 14.8759 22.2607 15.2778 22.4608C15.7894 22.7152 16.3556 22.8428 16.9218 22.9336C17.3474 23.0041 17.3768 23.0268 17.3782 23.4434H17.3768V25.7473L17.3778 26.0244C13.4158 25.5988 10.2694 22.431 9.89608 18.4705H12.4525V16.8088L9.90131 16.8093ZM17.5008 5.85908V7.70523C12.6107 8.08496 8.69529 11.9532 8.27207 16.8097H6.42053C6.85135 10.9398 11.5932 6.24496 17.5008 5.85908ZM6.41436 18.4715H8.26827C8.65206 23.3247 12.5181 27.2137 17.3778 27.6502V29.4931C11.5006 29.0481 6.8048 24.3376 6.41436 18.4715ZM19.0892 29.5016V27.6559C24.0068 27.2672 27.9327 23.3493 28.3093 18.4502H30.1637C29.7809 24.3632 25.0247 29.1062 19.0892 29.5016Z" fill="#BBBBBB"/>
</svg>
