<svg width="15" height="18" viewBox="0 0 15 18" fill="none" xmlns="http://www.w3.org/2000/svg">
<path d="M1.21425 14.4758C1.39415 15.812 2.5009 16.8588 3.84773 16.9207C4.98102 16.9728 6.13224 17 7.4 17C8.66776 17 9.81898 16.9728 10.9523 16.9207C12.2991 16.8588 13.4058 15.812 13.5858 14.4758C13.7032 13.6037 13.8 12.7101 13.8 11.8C13.8 10.8899 13.7032 9.99623 13.5858 9.12418C13.4058 7.78799 12.2991 6.74117 10.9523 6.67925C9.81898 6.62715 8.66776 6.59998 7.4 6.59998C6.13224 6.59998 4.98102 6.62715 3.84773 6.67925C2.5009 6.74117 1.39415 7.78799 1.21425 9.12418C1.09684 9.99623 0.999999 10.8899 0.999999 11.8C0.999999 12.7101 1.09684 13.6037 1.21425 14.4758Z" stroke="#888888" stroke-width="1.5"/>
<path d="M3.8 6.6V4.6C3.8 2.61177 5.41178 1 7.4 1C9.38823 1 11 2.61177 11 4.6V6.6" stroke="#888888" stroke-width="1.5" stroke-linecap="round" stroke-linejoin="round"/>
<path d="M7.39688 11.8H7.40407" stroke="#888888" stroke-width="2" stroke-linecap="round" stroke-linejoin="round"/>
</svg>
