<svg width="13" height="16" viewBox="0 0 13 16" fill="none" xmlns="http://www.w3.org/2000/svg">
<mask id="mask0_218_191" style="mask-type:luminance" maskUnits="userSpaceOnUse" x="0" y="10" width="13" height="6">
<path fill-rule="evenodd" clip-rule="evenodd" d="M0 10.0623H12.7548V16.0001H0V10.0623Z" fill="white"/>
</mask>
<g mask="url(#mask0_218_191)">
<path fill-rule="evenodd" clip-rule="evenodd" d="M6.37816 11.2701C2.94706 11.2701 1.20775 11.8595 1.20775 13.0231C1.20775 14.1971 2.94706 14.7922 6.37816 14.7922C9.80846 14.7922 11.547 14.2028 11.547 13.0392C11.547 11.8652 9.80846 11.2701 6.37816 11.2701ZM6.37814 16.0001C4.80068 16.0001 -0.00012207 16.0001 -0.00012207 13.0231C-0.00012207 10.3691 3.64034 10.0623 6.37814 10.0623C7.95559 10.0623 12.7548 10.0623 12.7548 13.0392C12.7548 15.6933 9.11513 16.0001 6.37814 16.0001Z" fill="#888888"/>
</g>
<mask id="mask1_218_191" style="mask-type:luminance" maskUnits="userSpaceOnUse" x="2" y="0" width="9" height="9">
<path fill-rule="evenodd" clip-rule="evenodd" d="M2.10156 0H10.6532V8.55046H2.10156V0Z" fill="white"/>
</mask>
<g mask="url(#mask1_218_191)">
<path fill-rule="evenodd" clip-rule="evenodd" d="M6.3782 1.14945C4.65419 1.14945 3.25147 2.55136 3.25147 4.27537C3.24584 5.99374 4.63809 7.39485 6.35485 7.40129L6.3782 7.97623V7.40129C8.1014 7.40129 9.50331 5.99857 9.50331 4.27537C9.50331 2.55136 8.1014 1.14945 6.3782 1.14945ZM6.37819 8.55029H6.35242C3.99952 8.54305 2.09354 6.62417 2.10159 4.27289C2.10159 1.91758 4.01966 -0.000488281 6.37819 -0.000488281C8.73591 -0.000488281 10.6532 1.91758 10.6532 4.2753C10.6532 6.63303 8.73591 8.55029 6.37819 8.55029Z" fill="#888888"/>
</g>
</svg>
