<svg width="16" height="12" viewBox="0 0 16 12" fill="none" xmlns="http://www.w3.org/2000/svg">
<path d="M15.6352 4.83599C15.8784 5.17704 16 5.34757 16 5.6C16 5.85243 15.8784 6.02296 15.6352 6.36401C14.5423 7.89645 11.7514 11.2 8 11.2C4.24862 11.2 1.45768 7.89645 0.364833 6.36401C0.121611 6.02296 8.39261e-09 5.85243 0 5.6C-8.38965e-09 5.34757 0.121611 5.17704 0.364832 4.83599C1.45768 3.30355 4.24862 0 8 0C11.7514 0 14.5423 3.30355 15.6352 4.83599Z" stroke="#888888" stroke-width="1.5"/>
<path d="M10.4003 5.6C10.4003 4.27452 9.32583 3.2 8.00034 3.2C6.67486 3.2 5.60034 4.27452 5.60034 5.6C5.60034 6.92548 6.67486 8 8.00034 8C9.32583 8 10.4003 6.92548 10.4003 5.6Z" stroke="#888888" stroke-width="1.5"/>
</svg>
