<svg width="15" height="18" viewBox="0 0 15 18" fill="none" xmlns="http://www.w3.org/2000/svg">
<path d="M13.5858 9.1243L14.329 9.02423L13.5858 9.1243ZM10.9523 6.67937L10.9867 5.93016L10.9523 6.67937ZM10.9523 16.9208L10.9867 17.67L10.9523 16.9208ZM13.5858 14.4759L12.8425 14.3758L13.5858 14.4759ZM3.84773 6.67937L3.88217 7.42858L3.84773 6.67937ZM1.21425 9.1243L1.95754 9.22438L1.21425 9.1243ZM3.84773 16.9208L3.88217 16.1716L3.84773 16.9208ZM1.21425 14.4759L1.95754 14.3758L1.21425 14.4759ZM7.4 16.2501C6.14338 16.2501 5.00365 16.2232 3.88217 16.1716L3.81328 17.67C4.95839 17.7227 6.1211 17.7501 7.4 17.7501V16.2501ZM10.9178 16.1716C9.79635 16.2232 8.65662 16.2501 7.4 16.2501V17.7501C8.6789 17.7501 9.84161 17.7227 10.9867 17.67L10.9178 16.1716ZM14.329 14.576C14.4478 13.6936 14.55 12.7607 14.55 11.8001H13.05C13.05 12.6597 12.9585 13.5141 12.8425 14.3758L14.329 14.576ZM14.55 11.8001C14.55 10.8395 14.4478 9.9066 14.329 9.02423L12.8425 9.22438C12.9585 10.0861 13.05 10.9405 13.05 11.8001H14.55ZM7.4 7.3501C8.65662 7.3501 9.79635 7.37702 10.9178 7.42858L10.9867 5.93016C9.84161 5.87752 8.6789 5.8501 7.4 5.8501V7.3501ZM3.88217 7.42858C5.00365 7.37702 6.14338 7.3501 7.4 7.3501V5.8501C6.1211 5.8501 4.95839 5.87752 3.81328 5.93016L3.88217 7.42858ZM0.470954 9.02423C0.352152 9.9066 0.249999 10.8395 0.249999 11.8001H1.75C1.75 10.9405 1.84152 10.0861 1.95754 9.22438L0.470954 9.02423ZM0.249999 11.8001C0.249999 12.7607 0.352152 13.6936 0.470954 14.576L1.95754 14.3758C1.84152 13.5141 1.75 12.6597 1.75 11.8001H0.249999ZM14.329 9.02423C14.1025 7.34126 12.7081 6.0093 10.9867 5.93016L10.9178 7.42858C11.8901 7.47328 12.7092 8.23497 12.8425 9.22438L14.329 9.02423ZM10.9867 17.67C12.7081 17.5909 14.1025 16.2589 14.329 14.576L12.8425 14.3758C12.7092 15.3652 11.8901 16.1269 10.9178 16.1716L10.9867 17.67ZM3.81328 5.93016C2.09193 6.0093 0.697548 7.34126 0.470954 9.02423L1.95754 9.22438C2.09075 8.23497 2.90987 7.47328 3.88217 7.42858L3.81328 5.93016ZM3.88217 16.1716C2.90987 16.1269 2.09075 15.3652 1.95754 14.3758L0.470954 14.576C0.697548 16.2589 2.09193 17.5909 3.81328 17.67L3.88217 16.1716Z" fill="#888888"/>
<path d="M3.80005 6.6V4.6C3.80005 2.61177 5.41182 1 7.40005 1C9.38827 1 11 2.61177 11 4.6V6.6" stroke="#888888" stroke-width="1.5" stroke-linecap="round" stroke-linejoin="round"/>
<path d="M7.39685 11.8H7.40404" stroke="#888888" stroke-width="2" stroke-linecap="round" stroke-linejoin="round"/>
</svg>
