<svg width="13" height="17" viewBox="0 0 13 17" fill="none" xmlns="http://www.w3.org/2000/svg">
<path d="M0.214248 13.9759C0.394151 15.3121 1.5009 16.3589 2.84773 16.4208C3.98102 16.4729 5.13224 16.5001 6.4 16.5001C7.66776 16.5001 8.81898 16.4729 9.95227 16.4208C11.2991 16.3589 12.4058 15.3121 12.5858 13.9759C12.7032 13.1038 12.8 12.2102 12.8 11.3001C12.8 10.39 12.7032 9.49635 12.5858 8.6243C12.4058 7.28811 11.2991 6.24129 9.95227 6.17937C8.81898 6.12727 7.66776 6.1001 6.4 6.1001C5.13224 6.1001 3.98102 6.12727 2.84773 6.17937C1.5009 6.24129 0.394151 7.28811 0.214247 8.6243C0.0968351 9.49635 -1.43612e-06 10.39 -1.43612e-06 11.3001C-1.43612e-06 12.2102 0.0968353 13.1038 0.214248 13.9759Z" stroke="#888888" stroke-width="1.5"/>
<path d="M2.80005 6.1V4.1C2.80005 2.11177 4.41182 0.5 6.40005 0.5C8.38827 0.5 10 2.11177 10 4.1V6.1" stroke="#888888" stroke-width="1.5" stroke-linecap="round" stroke-linejoin="round"/>
<path d="M6.39685 11.3H6.40404" stroke="#888888" stroke-width="2" stroke-linecap="round" stroke-linejoin="round"/>
</svg>
