<svg width="159" height="159" viewBox="0 0 159 159" fill="none" xmlns="http://www.w3.org/2000/svg">
<g style="mix-blend-mode:soft-light" filter="url(#filter0_bd_140_243)">
<path fill-rule="evenodd" clip-rule="evenodd" d="M99.3938 37.9801C106.107 37.1912 107.482 45.5016 109.689 50.1674C113.188 56.382 113.449 64.3681 117.713 70.0406C121.445 73.0318 130.622 70.7473 130.419 77.8234C129.804 86.2209 115.492 85.3062 109.577 83.2201C103.701 80.108 104.645 71.5604 100.691 67.1027C97.7917 66.3767 96.8334 73.511 95.7541 75.5728C93.2711 81.7584 90.701 88.1182 88.5763 94.3038C86.616 99.9328 84.4671 111.394 76.176 107.435C71.8974 105.189 70.5277 100.247 68.8288 96.0559C65.8764 89.3283 63.7032 81.8988 59.8505 75.718C55.0734 73.3948 56.1624 85.5821 42.6151 84.4737C36.6135 85.2674 29.4647 79.5852 34.0289 73.9417C36.0617 71.9428 39.3868 71.9863 41.8068 70.5488C50.1124 66.0815 52.4162 43.7979 64.9084 52.7858C68.4368 55.806 76.0018 82.4457 78.8187 79.8418C83.5571 71.8847 86.8677 62.5482 89.9799 53.7539C93.0533 48.6428 92.8162 39.9887 99.3309 37.9946L99.3986 37.9801H99.3938Z" fill="#E7E7E8"/>
<path d="M81.5 0C39.8029 0 6 33.8029 6 75.5C6 117.197 39.8029 151 81.5 151C123.197 151 157 117.197 157 75.5C157 33.8029 123.197 0 81.5 0ZM81.5 131.495C50.5769 131.495 25.5054 106.423 25.5054 75.5C25.5054 44.5769 50.5769 19.5054 81.5 19.5054C112.423 19.5054 137.495 44.5769 137.495 75.5C137.495 106.423 112.423 131.495 81.5 131.495Z" fill="#BBBBBB"/>
</g>
<defs>
<filter id="filter0_bd_140_243" x="0" y="-5.8" width="162.8" height="164.8" filterUnits="userSpaceOnUse" color-interpolation-filters="sRGB">
<feFlood flood-opacity="0" result="BackgroundImageFix"/>
<feGaussianBlur in="BackgroundImageFix" stdDeviation="2.9"/>
<feComposite in2="SourceAlpha" operator="in" result="effect1_backgroundBlur_140_243"/>
<feColorMatrix in="SourceAlpha" type="matrix" values="0 0 0 0 0 0 0 0 0 0 0 0 0 0 0 0 0 0 127 0" result="hardAlpha"/>
<feOffset dx="-2" dy="4"/>
<feGaussianBlur stdDeviation="2"/>
<feComposite in2="hardAlpha" operator="out"/>
<feColorMatrix type="matrix" values="0 0 0 0 0 0 0 0 0 0 0 0 0 0 0 0 0 0 0.25 0"/>
<feBlend mode="normal" in2="effect1_backgroundBlur_140_243" result="effect2_dropShadow_140_243"/>
<feBlend mode="normal" in="SourceGraphic" in2="effect2_dropShadow_140_243" result="shape"/>
</filter>
</defs>
</svg>
