<svg xmlns="http://www.w3.org/2000/svg" width="312" height="312" viewBox="0 0 312 312" fill="#ffffff">
<g clip-path="url(#clip0_16_956)">
<path fill-rule="evenodd" clip-rule="evenodd" d="M192.96 78.4701C206.83 76.8401 209.67 94.0101 214.23 103.65C221.46 116.49 222 132.99 230.81 144.71C238.52 150.89 257.48 146.17 257.06 160.79C255.79 178.14 226.22 176.25 214 171.94C201.86 165.51 203.81 147.85 195.64 138.64C189.65 137.14 187.67 151.88 185.44 156.14C180.31 168.92 175 182.06 170.61 194.84C166.56 206.47 162.12 230.15 144.99 221.97C136.15 217.33 133.32 207.12 129.81 198.46C123.71 184.56 119.22 169.21 111.26 156.44C101.39 151.64 103.64 176.82 75.6501 174.53C63.2501 176.17 48.4801 164.43 57.9101 152.77C62.1101 148.64 68.9801 148.73 73.9801 145.76C91.1401 136.53 95.9001 90.4901 121.71 109.06C129 115.3 144.63 170.34 150.45 164.96C160.24 148.52 167.08 129.23 173.51 111.06C179.86 100.5 179.37 82.6201 192.83 78.5001L192.97 78.4701H192.96Z" fill="#ffffff"/>
<path d="M155.99 0C69.84 0 0 69.84 0 155.99C0 242.14 69.84 311.98 155.99 311.98C242.14 311.98 311.98 242.14 311.98 155.99C311.98 69.84 242.14 0 155.99 0ZM155.99 271.68C92.1 271.68 40.3 219.88 40.3 155.99C40.3 92.1 92.1 40.3 155.99 40.3C219.88 40.3 271.68 92.1 271.68 155.99C271.68 219.88 219.88 271.68 155.99 271.68Z" fill="#ffffff"/>
</g>
<defs fill="#000000">
<clipPath id="clip0_16_956" fill="#000000">
<rect width="311.98" height="311.98" fill="#ffffff"/>
</clipPath>
</defs>
</svg>