<svg width="14" height="16" viewBox="0 0 14 16" fill="none" xmlns="http://www.w3.org/2000/svg">
<path d="M6.61827 4.59717C5.98626 4.59717 5.00796 3.87859 3.97771 3.90457C2.61847 3.92188 1.37178 4.6924 0.670513 5.91312C-0.740671 8.36322 0.306895 11.9821 1.68345 13.9733C2.35874 14.943 3.15524 16.0338 4.21146 15.9992C5.2244 15.9559 5.60533 15.3412 6.83471 15.3412C8.05542 15.3412 8.40173 15.9992 9.47527 15.9732C10.5661 15.9559 11.2587 14.9863 11.9254 14.008C12.6959 12.8825 13.0162 11.7916 13.0335 11.731C13.0076 11.7224 10.9124 10.9172 10.8865 8.49308C10.8691 6.46721 12.54 5.49756 12.618 5.45427C11.6656 4.0604 10.2025 3.90457 9.6917 3.86994C8.35844 3.76605 7.24161 4.59717 6.61827 4.59717ZM8.86924 2.55398C9.43198 1.87869 9.80425 0.935018 9.70036 0C8.89521 0.0346303 7.92556 0.53677 7.3455 1.21206C6.82605 1.80943 6.37585 2.77042 6.49706 3.68813C7.38879 3.75739 8.30649 3.22928 8.86924 2.55398Z" fill="#666666"/>
</svg>
