<svg width="16" height="17" viewBox="0 0 16 17" fill="none" xmlns="http://www.w3.org/2000/svg">
<path fill-rule="evenodd" clip-rule="evenodd" d="M12.0128 9.59098C12.4999 9.59098 12.9088 9.99676 12.8343 10.4823C12.3973 13.3389 9.97478 15.4598 7.05296 15.4598C3.82034 15.4598 1.2002 12.815 1.2002 9.55263C1.2002 6.86481 3.22305 4.36109 5.50048 3.795C5.98985 3.67303 6.49139 4.02051 6.49139 4.52908C6.49139 7.97476 6.60613 8.8661 7.25433 9.35089C7.90253 9.83568 8.66471 9.59098 12.0128 9.59098Z" stroke="#AAA8AA" stroke-width="1.5" stroke-linecap="round" stroke-linejoin="round"/>
<path fill-rule="evenodd" clip-rule="evenodd" d="M15.1997 6.72159C15.2385 4.50783 12.5446 0.939415 9.26183 1.00078C9.0065 1.00538 8.80209 1.22016 8.79069 1.47713C8.70786 3.29739 8.81957 5.65613 8.88188 6.72543C8.90088 7.05834 9.16 7.31991 9.48904 7.33909C10.578 7.40199 12.9998 7.4879 14.7772 7.21635C15.0188 7.17953 15.1959 6.96782 15.1997 6.72159Z" stroke="#AAA8AA" stroke-width="1.5" stroke-linecap="round" stroke-linejoin="round"/>
</svg>
