<svg width="15" height="18" viewBox="0 0 15 18" fill="none" xmlns="http://www.w3.org/2000/svg">
<path d="M1.21425 14.4759C1.39415 15.8121 2.5009 16.8589 3.84773 16.9208C4.98102 16.9729 6.13224 17.0001 7.4 17.0001C8.66776 17.0001 9.81898 16.9729 10.9523 16.9208C12.2991 16.8589 13.4058 15.8121 13.5858 14.4759C13.7032 13.6038 13.8 12.7102 13.8 11.8001C13.8 10.89 13.7032 9.99635 13.5858 9.1243C13.4058 7.78811 12.2991 6.74129 10.9523 6.67937C9.81898 6.62727 8.66776 6.6001 7.4 6.6001C6.13224 6.6001 4.98102 6.62727 3.84773 6.67937C2.5009 6.74129 1.39415 7.78811 1.21425 9.1243C1.09684 9.99635 0.999999 10.89 0.999999 11.8001C0.999999 12.7102 1.09684 13.6038 1.21425 14.4759Z" stroke="#888888" stroke-width="1.5"/>
<path d="M3.80005 6.6V4.6C3.80005 2.61177 5.41182 1 7.40005 1C9.38827 1 11 2.61177 11 4.6V6.6" stroke="#888888" stroke-width="1.5" stroke-linecap="round" stroke-linejoin="round"/>
<path d="M7.39685 11.8H7.40404" stroke="#888888" stroke-width="2" stroke-linecap="round" stroke-linejoin="round"/>
</svg>
