<svg width="14" height="14" viewBox="0 0 14 14" fill="none" xmlns="http://www.w3.org/2000/svg">
<path d="M0.7448 3.857C1.32721 2.69727 2.22066 1.72236 3.3253 1.04123C4.42994 0.360099 5.70224 -0.000408498 7 3.47362e-07C8.8865 3.47362e-07 10.4713 0.693 11.683 1.8235L9.6761 3.8311C8.9502 3.1374 8.0276 2.7839 7 2.7839C5.1765 2.7839 3.633 4.0159 3.0835 5.67C2.9435 6.09 2.8637 6.538 2.8637 7C2.8637 7.462 2.9435 7.91 3.0835 8.33C3.6337 9.9848 5.1765 11.2161 7 11.2161C7.9415 11.2161 8.743 10.9676 9.3702 10.5476C9.73381 10.3082 10.0451 9.99756 10.2852 9.63445C10.5254 9.27134 10.6894 8.8633 10.7674 8.435H7V5.7274H13.5926C13.6752 6.1852 13.72 6.6626 13.72 7.1589C13.72 9.2911 12.957 11.0859 11.6326 12.3039C10.4748 13.3735 8.89 14 7 14C6.08064 14.0004 5.17023 13.8196 4.32078 13.4679C3.47134 13.1163 2.69952 12.6007 2.04943 11.9506C1.39935 11.3005 0.883747 10.5287 0.532094 9.67922C0.180442 8.82977 -0.000367403 7.91936 5.605e-07 7C5.605e-07 5.8702 0.2702 4.802 0.7448 3.857Z" fill="#666666"/>
</svg>
