<?xml version="1.0" standalone="no"?>
<!DOCTYPE svg PUBLIC "-//W3C//DTD SVG 20010904//EN"
 "http://www.w3.org/TR/2001/REC-SVG-20010904/DTD/svg10.dtd">
<svg version="1.0" xmlns="http://www.w3.org/2000/svg"
 width="260.000000pt" height="260.000000pt" viewBox="0 0 260.000000 260.000000"
 preserveAspectRatio="xMidYMid meet">
<metadata>
Created by potrace 1.14, written by Peter Selinger 2001-2017
</metadata>
<g transform="translate(0.000000,260.000000) scale(0.100000,-0.100000)"
fill="#000000" stroke="none">
<path d="M1150 2593 c-288 -44 -515 -147 -713 -323 -289 -256 -441 -609 -432
-1000 2 -80 6 -158 10 -175 21 -99 28 -128 51 -200 60 -188 163 -355 313 -506
192 -193 404 -308 672 -365 117 -25 380 -25 499 0 349 74 639 269 832 558 92
138 173 335 194 473 3 22 10 60 14 85 9 47 6 304 -4 355 -21 106 -29 138 -52
210 -97 302 -333 586 -614 737 -123 66 -304 128 -425 145 -41 6 -314 11 -345
6z m310 -343 c365 -59 678 -343 770 -700 13 -48 13 -51 25 -120 20 -113 1
-313 -42 -440 -78 -233 -267 -446 -493 -556 -194 -94 -424 -121 -634 -74 -296
66 -566 295 -678 574 -131 329 -80 690 138 965 218 275 562 407 914 351z"/>
<path d="M1585 1934 c-42 -21 -61 -50 -100 -156 -113 -311 -189 -491 -228
-542 -14 -19 -15 -18 -41 20 -14 22 -51 103 -82 179 -83 208 -107 251 -152
273 -30 15 -73 21 -102 13 -27 -7 -94 -93 -141 -181 -25 -49 -84 -128 -109
-147 -8 -6 -39 -19 -69 -29 -66 -21 -101 -55 -101 -99 0 -67 67 -116 164 -120
110 -4 159 21 242 123 14 17 34 32 43 32 23 0 69 -92 151 -300 34 -85 72 -171
85 -190 46 -66 116 -89 168 -55 34 22 55 62 97 185 18 52 58 163 90 245 32 83
65 171 74 197 35 96 67 79 112 -60 45 -138 84 -168 230 -177 131 -8 224 42
224 121 0 49 -35 78 -111 93 -34 7 -72 17 -85 23 -29 14 -72 100 -104 208 -49
166 -141 347 -178 351 -4 0 -16 2 -27 4 -11 2 -33 -3 -50 -11z"/>
</g>
</svg>
